<svg width="1566" height="289" viewBox="0 0 1566 289" fill="none" xmlns="http://www.w3.org/2000/svg">
<path d="M1522.15 136.675C1519.73 131.645 1516.61 126.983 1512.87 122.829C1508.73 114.814 1502.94 107.761 1495.87 102.132C1488.81 96.503 1480.63 92.4244 1471.87 90.1634C1463.11 87.9023 1453.97 87.51 1445.05 89.012C1436.13 90.514 1427.62 93.8765 1420.1 98.8792C1410.87 89.0989 1399.68 81.3617 1387.26 76.1703C1374.83 70.9788 1361.45 68.4493 1347.98 68.746C1334.51 69.0427 1321.25 72.159 1309.07 77.8924C1296.88 83.6258 1286.05 91.8481 1277.26 102.025C1269.36 92.8592 1259.6 85.4551 1248.64 80.295C1237.67 75.135 1225.73 72.3349 1213.6 72.0772C1201.47 71.8195 1189.43 74.1099 1178.25 78.7993C1167.07 83.4886 1157 90.4717 1148.71 99.2934C1137.9 87.311 1123.45 79.1917 1107.56 76.1805C1091.67 73.1694 1075.23 75.4328 1060.75 82.6235C1057.58 59.6677 1046.07 38.6669 1028.41 23.5912C1010.75 8.51559 988.147 0.409952 964.886 0.806719C941.626 1.20349 919.316 10.0752 902.174 25.7445C885.032 41.4139 874.247 62.795 871.856 85.8456C864.225 82.3865 855.908 80.6924 847.526 80.8903C833.15 81.254 819.462 87.0991 809.284 97.2202C799.106 107.341 793.215 120.966 792.825 135.285C788.722 134.255 784.498 133.781 780.267 133.879C769.27 134.135 758.689 138.12 750.272 145.175C739.161 133.466 724.577 125.609 708.657 122.755C692.737 119.901 676.317 122.199 661.801 129.314C654.933 109.419 642.433 91.9296 625.809 78.9551C609.184 65.9806 589.145 58.0751 568.109 56.1923C547.072 54.3096 525.937 58.5299 507.252 68.3442C488.568 78.1586 473.132 93.1477 462.807 111.504C450.136 99.7724 433.829 92.6919 416.575 91.429C399.321 90.166 382.148 94.796 367.887 104.556C363.538 91.0524 355.907 78.8289 345.673 68.9716C335.438 59.1144 322.917 51.9288 309.222 48.0533C295.527 44.1779 281.082 43.7326 267.171 46.7572C253.261 49.7818 240.315 56.1825 229.484 65.3905C218.221 47.3695 201.319 33.5401 181.384 26.0345C161.449 18.5289 139.588 17.7638 119.171 23.8572C98.7533 29.9505 80.9137 42.564 68.4021 59.7531C55.8906 76.9421 49.4017 97.7522 49.936 118.975C49.9649 120.188 49.993 121.363 50.021 122.538C38.9434 126.36 28.9312 132.739 20.8035 141.156C12.6759 149.572 6.66383 159.785 3.25933 170.959C-0.145163 182.133 -0.845364 193.951 1.21603 205.445C3.27742 216.94 8.04182 227.784 15.1194 237.091C22.1969 246.399 31.3865 253.904 41.9361 258.993C52.4858 264.082 64.0957 266.611 75.8159 266.372C87.536 266.133 99.0334 263.133 109.367 257.618C119.701 252.103 128.577 244.23 135.27 234.642C140.826 237.97 147.216 239.658 153.698 239.511C156.05 239.448 158.389 239.151 160.681 238.624C163.767 251.978 171.071 263.994 181.519 272.907C191.968 281.821 205.012 287.161 218.734 288.144C232.456 289.128 246.134 285.702 257.759 278.371C269.384 271.039 278.344 260.189 283.321 247.412C289.769 250.391 297.072 250.983 303.919 249.081C309.982 253.509 317.09 256.304 324.556 257.197C327.221 262.985 331.238 268.054 336.271 271.981C341.304 275.907 347.208 278.577 353.489 279.767C359.77 280.957 366.246 280.632 372.376 278.821C378.506 277.009 384.112 273.763 388.726 269.353C394.807 275.362 402.393 279.639 410.696 281.741C418.998 283.843 427.714 283.693 435.939 281.307C444.165 278.92 451.599 274.384 457.471 268.169C463.343 261.955 467.438 254.288 469.331 245.965C473.686 245.687 477.917 244.405 481.69 242.219C497.118 257.305 516.689 267.499 537.931 271.513C559.173 275.528 581.134 273.183 601.042 264.775C604.258 268.249 608.307 270.852 612.809 272.34C617.312 273.828 622.12 274.152 626.783 273.283C631.446 272.414 635.812 270.379 639.47 267.369C643.128 264.36 645.959 260.474 647.697 256.077C661.952 267.479 679.865 273.365 698.134 272.65C716.404 271.935 733.8 264.667 747.117 252.186C752.916 256.389 759.983 258.493 767.147 258.15C774.311 257.806 781.143 255.036 786.512 250.297C790.015 259.126 795.808 266.872 803.297 272.743C810.787 278.614 819.707 282.401 829.147 283.717C838.586 285.034 848.208 283.833 857.03 280.237C865.853 276.641 873.56 270.778 879.367 263.247C885.502 265.389 891.974 266.416 898.474 266.28C907.177 266.068 915.706 263.799 923.358 259.661C931.01 255.522 937.565 249.633 942.484 242.476C947.023 249.808 953.103 256.073 960.305 260.84C967.507 265.607 975.661 268.762 984.205 270.09C992.75 271.417 1001.48 270.885 1009.8 268.53C1018.12 266.174 1025.83 262.052 1032.39 256.445C1050.14 263.798 1069.28 267.223 1088.48 266.482C1111.39 266.359 1133.84 260.057 1153.45 248.245C1156.41 257.572 1161.95 265.878 1169.43 272.213C1176.91 278.547 1186.03 282.653 1195.75 284.06C1205.47 285.467 1215.39 284.117 1224.37 280.166C1233.35 276.215 1241.04 269.822 1246.54 261.721C1251.41 266.531 1257.28 270.211 1263.74 272.499C1270.19 274.786 1277.08 275.625 1283.9 274.955C1290.72 274.285 1297.31 272.123 1303.2 268.622C1309.08 265.122 1314.12 260.37 1317.95 254.707C1333.48 260.189 1350.17 261.603 1366.41 258.811C1382.64 256.019 1397.89 249.116 1410.68 238.765C1421.6 246.543 1438.77 251.366 1458.06 250.905C1486.03 250.237 1509.13 238.689 1514.75 223.841C1520.7 224.717 1526.76 224.369 1532.56 222.821C1538.37 221.273 1543.79 218.557 1548.5 214.84C1553.21 211.123 1557.11 206.484 1559.95 201.21C1562.8 195.935 1564.52 190.137 1565.03 184.172C1565.54 178.207 1564.81 172.203 1562.9 166.529C1560.98 160.855 1557.92 155.632 1553.91 151.181C1549.89 146.731 1545 143.148 1539.54 140.653C1534.07 138.158 1528.16 136.805 1522.15 136.675Z" fill="#FEF9C2"/>
</svg>
